<svg xmlns="http://www.w3.org/2000/svg" xmlns:xlink="http://www.w3.org/1999/xlink" width="1920" zoomAndPan="magnify" viewBox="0 0 1440 809.999993" height="1080" preserveAspectRatio="xMidYMid meet" version="1.0"><defs><clipPath id="00d30c8953"><path d="M 632 90 L 1045.210938 90 L 1045.210938 455 L 632 455 Z M 632 90 " clip-rule="nonzero"/></clipPath></defs><path fill="#e1d5ca" d="M 505.773438 470.765625 C 499.539062 476.84375 493.460938 483.078125 487.695312 488.847656 C 485.511719 483.390625 487.382812 476.222656 496.265625 461.261719 C 492.371094 463.441406 489.566406 464.378906 487.851562 466.246094 C 482.707031 472.324219 477.253906 478.402344 473.046875 485.261719 C 459.953125 506.457031 441.875 518.457031 416.316406 517.210938 C 415.222656 517.210938 413.976562 516.898438 412.574219 516.121094 C 434.238281 512.222656 453.097656 504.585938 461.980469 482.769531 C 453.5625 486.351562 445.304688 489.9375 437.042969 493.523438 C 436.574219 492.898438 436.265625 492.273438 435.796875 491.496094 C 449.667969 485.261719 457.773438 473.882812 464.628906 459.546875 C 448.265625 463.753906 432.835938 467.027344 417.875 471.703125 C 409.144531 474.351562 406.183594 478.714844 397.144531 492.742188 C 398.859375 475.597656 413.820312 461.105469 432.210938 458.609375 C 439.382812 457.675781 446.550781 456.898438 453.71875 456.273438 C 460.109375 455.804688 464.472656 452.53125 467.589844 447.234375 C 470.863281 441.621094 473.824219 435.699219 477.410156 429.15625 C 462.914062 432.117188 448.578125 440.53125 436.574219 426.039062 C 454.964844 436.324219 483.019531 420.894531 487.851562 402.347656 C 495.019531 375.230469 515.125 362.449219 540.21875 355.902344 C 554.398438 352.164062 568.894531 352.632812 582.921875 357.773438 C 596.167969 362.761719 604.585938 373.046875 611.597656 384.738281 C 612.066406 385.515625 612.6875 387.074219 612.222656 387.699219 C 608.324219 394.554688 613.46875 397.050781 617.519531 400.945312 C 620.636719 403.90625 623.132812 408.582031 623.753906 412.945312 C 625.46875 425.726562 626.09375 438.816406 627.339844 451.597656 C 627.808594 455.648438 626.25 457.675781 622.507812 458.144531 C 613.3125 459.078125 604.742188 457.519531 597.261719 451.597656 C 592.273438 447.546875 590.402344 442.089844 592.273438 436.167969 C 593.519531 432.117188 592.117188 430.089844 589.777344 427.285156 C 585.882812 422.609375 581.988281 417.621094 579.492188 412.167969 C 576.53125 405.777344 578.246094 403.28125 586.351562 400.167969 C 582.765625 398.453125 580.117188 397.359375 577.464844 396.113281 C 576.375 398.917969 574.039062 401.878906 574.347656 404.53125 C 575.285156 410.765625 577.464844 416.6875 579.179688 422.765625 C 580.894531 428.375 582.765625 433.832031 584.324219 439.441406 C 586.195312 445.988281 587.597656 452.6875 589.15625 459.078125 C 586.195312 458.144531 582.296875 457.050781 578.402344 455.960938 C 578.246094 456.429688 577.933594 456.742188 577.777344 457.207031 C 583.078125 460.636719 588.21875 464.378906 593.832031 467.183594 C 595.703125 468.117188 598.820312 467.183594 601.15625 466.558594 C 613.15625 463.910156 625.3125 462.507812 637.160156 465.46875 C 630.769531 474.195312 624.535156 482.613281 618.144531 490.871094 C 616.898438 492.429688 614.402344 492.742188 612.6875 493.832031 C 605.988281 497.574219 599.285156 501.316406 592.585938 505.210938 C 592.894531 505.835938 593.207031 506.300781 593.519531 506.925781 C 601.78125 504.585938 610.351562 502.875 618.300781 499.445312 C 622.820312 497.417969 626.871094 493.210938 629.675781 489.003906 C 634.042969 482.769531 637.625 475.910156 641.054688 469.207031 C 653.523438 444.894531 674.875 433.832031 700.433594 429.15625 C 702.460938 428.84375 704.640625 428.53125 706.355469 428.375 C 706.355469 438.816406 706.355469 448.949219 706.355469 461.417969 C 709.007812 453.78125 712.28125 447.855469 712.902344 441.777344 C 715.707031 416.21875 730.824219 398.761719 749.996094 383.957031 C 761.0625 375.386719 772.59375 367.75 783.972656 359.644531 C 784.4375 359.957031 784.90625 360.421875 785.21875 360.734375 C 783.660156 369.308594 782.101562 377.878906 780.230469 387.542969 C 788.492188 381.152344 792.230469 373.359375 794.257812 364.941406 C 799.710938 341.878906 813.273438 326.449219 833.6875 314.601562 C 846.3125 307.277344 856.441406 295.746094 867.351562 285.769531 C 873.429688 280.160156 878.730469 273.613281 884.183594 267.378906 C 891.355469 259.117188 891.511719 255.066406 885.121094 245.402344 C 891.976562 239.324219 898.992188 233.246094 905.535156 227.480469 C 914.578125 238.078125 923.617188 248.519531 932.96875 259.585938 C 908.964844 277.820312 896.1875 305.097656 882.78125 332.214844 C 874.210938 349.359375 864.078125 365.878906 853.328125 381.929688 C 846 392.839844 835.714844 401.257812 823.714844 407.804688 C 823.714844 402.816406 823.714844 398.453125 823.714844 393.777344 C 815.765625 404.839844 808.441406 415.90625 800.335938 426.503906 C 791.453125 437.882812 780.699219 447.078125 766.984375 452.375 C 758.101562 455.804688 754.828125 453.625 753.890625 444.429688 C 753.582031 444.585938 752.957031 444.738281 752.957031 444.894531 C 750.773438 450.351562 746.878906 456.894531 752.175781 461.417969 C 757.164062 465.78125 762.929688 460.792969 767.917969 458.300781 C 773.0625 455.648438 777.738281 452.375 783.503906 448.792969 C 782.414062 451.128906 781.789062 452.6875 781.011719 454.246094 C 766.828125 479.027344 748.125 499.601562 723.8125 514.875 C 713.527344 521.417969 702.460938 526.40625 689.214844 525.003906 C 692.175781 530.925781 697.160156 531.707031 701.835938 530.613281 C 710.875 528.433594 719.449219 525.316406 728.957031 522.355469 C 734.566406 534.980469 736.75 549.003906 735.34375 563.5 C 734.722656 570.203125 734.878906 576.28125 737.371094 582.667969 C 745.164062 603.554688 745.164062 625.0625 741.890625 646.726562 C 740.019531 659.039062 738.152344 671.503906 736.28125 683.816406 C 736.125 685.222656 736.28125 686.78125 736.75 688.183594 C 740.957031 698.46875 737.839844 707.351562 730.203125 714.210938 C 722.566406 721.066406 713.839844 726.679688 705.109375 733.222656 C 701.371094 728.703125 698.71875 725.273438 695.914062 721.847656 C 695.601562 721.847656 695.136719 722.003906 694.824219 722.003906 C 695.601562 726.367188 696.539062 730.730469 697.003906 735.25 C 697.160156 736.964844 696.382812 739.457031 695.136719 740.238281 C 669.886719 755.355469 643.390625 763.925781 613.9375 753.484375 C 608.949219 751.769531 604.273438 749.277344 598.507812 746.628906 C 603.804688 736.183594 608.480469 726.210938 613.9375 716.703125 C 619.234375 707.507812 619.078125 702.054688 611.910156 693.792969 C 603.027344 683.507812 593.988281 673.375 585.257812 662.933594 C 583.234375 660.441406 582.140625 656.542969 581.675781 653.269531 C 580.429688 641.582031 577.3125 630.515625 570.140625 618.984375 C 570.140625 625.21875 570.453125 629.738281 570.140625 634.101562 C 569.519531 643.140625 562.816406 646.257812 555.492188 641.113281 C 548.167969 635.972656 540.996094 630.671875 534.140625 625.0625 C 528.839844 620.855469 526.503906 615.085938 526.660156 608.230469 C 526.816406 595.917969 526.660156 583.605469 525.410156 570.824219 C 523.699219 577.527344 521.359375 584.074219 520.113281 590.773438 C 516.839844 609.320312 504.996094 620.542969 488.628906 628.023438 C 484.265625 630.050781 480.058594 630.203125 476.316406 626.464844 C 466.96875 617.425781 459.019531 617.113281 447.640625 625.0625 C 451.226562 624.75 454.65625 624.28125 457.925781 624.28125 C 468.992188 624.28125 471.640625 628.957031 465.71875 640.179688 C 480.371094 634.101562 493.929688 628.492188 507.488281 622.878906 C 505.308594 629.738281 500.476562 635.191406 494.554688 638.308594 C 483.800781 644.074219 472.421875 648.59375 461.042969 653.425781 C 453.875 656.542969 446.394531 658.882812 439.226562 662 C 425.511719 667.765625 412.105469 670.257812 398.546875 661.375 C 395.273438 659.195312 394.964844 657.480469 396.832031 653.738281 C 399.636719 647.972656 401.664062 641.425781 402.601562 635.035156 C 404.625 620.855469 411.796875 610.101562 423.796875 603.398438 C 438.914062 594.980469 450.914062 583.917969 459.953125 569.265625 C 462.292969 565.527344 466.1875 562.71875 468.527344 559.136719 C 473.046875 552.277344 479.28125 545.734375 480.992188 538.097656 C 486.605469 513.78125 517.929688 505.988281 534.453125 515.964844 C 534.917969 516.277344 535.542969 516.433594 536.164062 516.742188 C 533.359375 509.730469 530.398438 507.546875 518.554688 504.433594 C 526.035156 497.261719 532.113281 490.25 539.4375 484.792969 C 543.335938 481.832031 544.894531 479.027344 545.203125 476.378906 C 539.90625 480.117188 533.984375 484.328125 527.28125 489.003906 C 525.410156 485.574219 523.699219 482.457031 521.984375 479.183594 C 512.320312 498.199219 498.917969 511.757812 476.007812 511.757812 C 484.734375 508.953125 492.683594 504.898438 497.980469 497.105469 C 503.28125 489.625 507.019531 481.367188 507.175781 472.171875 C 506.867188 471.703125 506.398438 471.234375 505.773438 470.765625 Z M 567.335938 470.921875 C 565 481.519531 562.503906 493.054688 560.167969 504.742188 C 556.269531 524.691406 557.515625 544.019531 568.738281 561.785156 C 570.296875 564.125 572.011719 566.460938 573.726562 568.800781 C 573.414062 569.421875 573.101562 570.203125 572.636719 570.824219 C 565 568.644531 557.363281 566.460938 549.878906 564.277344 C 553.933594 571.136719 560.480469 575.03125 568.117188 577.214844 C 581.519531 580.957031 590.402344 589.214844 596.324219 601.839844 C 604.742188 619.605469 616.585938 635.191406 630.144531 649.53125 C 644.015625 664.179688 652.585938 681.480469 653.523438 701.898438 C 653.835938 706.730469 653.523438 711.558594 653.523438 716.859375 C 666.148438 697.222656 663.496094 670.570312 647.601562 653.269531 C 641.988281 647.191406 635.910156 641.425781 630.769531 635.035156 C 612.222656 612.125 599.910156 586.722656 601.78125 556.332031 C 602.246094 548.695312 603.027344 541.058594 603.648438 533.421875 C 603.027344 533.109375 602.402344 532.953125 601.933594 532.640625 C 597.105469 542.617188 592.273438 552.433594 587.128906 563.03125 C 584.949219 561.160156 581.675781 559.292969 579.179688 556.488281 C 567.960938 543.707031 563.75 528.433594 566.710938 512.070312 C 569.207031 497.730469 569.207031 484.015625 567.335938 470.921875 Z M 700.902344 583.136719 C 680.796875 580.957031 664.589844 570.046875 646.664062 561.472656 C 660.847656 583.761719 684.539062 594.828125 700.902344 583.136719 Z M 700.902344 583.136719 " fill-opacity="1" fill-rule="nonzero"/><path fill="#e1d5ca" d="M 880.757812 155.164062 C 876.390625 164.203125 878.261719 172.777344 880.601562 181.191406 C 882.78125 188.671875 885.277344 196.15625 888.082031 203.480469 C 889.484375 207.21875 889.015625 209.871094 886.054688 212.363281 C 882.78125 215.167969 879.820312 218.128906 876.703125 221.089844 C 867.042969 212.519531 857.378906 203.167969 846.78125 195.21875 C 789.582031 151.890625 728.019531 116.667969 659.289062 94.695312 C 651.339844 92.199219 642.769531 90.640625 634.351562 90.175781 C 621.574219 89.550781 617.210938 96.253906 622.351562 107.941406 C 624.691406 113.398438 627.964844 118.382812 631.703125 124.929688 C 572.945312 75.835938 507.488281 41.859375 436.574219 17.390625 C 441.5625 17.390625 446.707031 17.234375 451.691406 17.390625 C 456.992188 17.703125 462.292969 18.328125 467.589844 18.949219 C 561.570312 30.640625 650.5625 59.9375 738.152344 94.226562 C 784.285156 112.304688 829.480469 132.878906 874.988281 152.359375 C 876.859375 153.140625 878.417969 154.074219 880.757812 155.164062 Z M 880.757812 155.164062 " fill-opacity="1" fill-rule="nonzero"/><path fill="#e1d5ca" d="M 923.304688 278.132812 C 927.042969 275.015625 930.785156 271.898438 934.992188 268.316406 C 943.722656 274.703125 952.292969 281.25 961.175781 287.484375 C 965.539062 290.445312 969.902344 293.875 974.890625 295.433594 C 980.035156 296.992188 985.800781 296.679688 992.96875 297.304688 C 1013.855469 464.6875 994.683594 629.894531 948.707031 792.757812 C 963.980469 703.300781 965.382812 614.308594 939.824219 526.09375 C 945.433594 529.367188 950.421875 532.796875 956.035156 535.132812 C 964.292969 538.5625 971.152344 536.382812 974.578125 528.121094 C 977.851562 520.640625 980.503906 512.378906 980.65625 504.429688 C 981.59375 435.390625 968.96875 368.996094 939.355469 306.1875 C 934.835938 296.679688 929.070312 287.953125 923.304688 278.132812 Z M 923.304688 278.132812 " fill-opacity="1" fill-rule="nonzero"/><g clip-path="url(#00d30c8953)"><path fill="#e1d5ca" d="M 977.539062 142.695312 C 967.097656 143.945312 956.8125 145.347656 946.371094 146.59375 C 946.214844 146.28125 946.058594 145.96875 945.902344 145.660156 C 978.632812 127.421875 1011.359375 109.1875 1044.089844 90.953125 C 1044.402344 91.265625 1044.714844 91.734375 1045.023438 92.046875 C 1022.269531 121.5 999.515625 150.800781 976.917969 180.257812 C 976.449219 180.101562 976.136719 179.789062 975.671875 179.632812 C 978.007812 169.035156 980.191406 158.4375 982.839844 145.96875 C 865.949219 249.613281 750.621094 352.007812 635.289062 454.402344 C 632.015625 450.972656 631.859375 450.972656 635.289062 447.855469 C 654.925781 430.402344 674.71875 412.945312 694.355469 395.335938 C 768.230469 329.71875 842.105469 264.105469 916.136719 198.492188 C 935.148438 181.503906 954.320312 164.671875 973.332031 147.683594 C 974.890625 146.28125 976.605469 145.035156 978.164062 143.789062 C 978.007812 143.476562 977.851562 143.007812 977.539062 142.695312 Z M 977.539062 142.695312 " fill-opacity="1" fill-rule="nonzero"/></g><path fill="#e1d5ca" d="M 550.347656 350.761719 C 543.648438 352.007812 537.101562 353.566406 530.398438 354.5 C 528.527344 354.8125 525.257812 353.410156 524.632812 352.164062 C 521.828125 344.371094 523.230469 336.890625 528.683594 330.8125 C 533.984375 325.046875 540.839844 323.332031 548.476562 325.824219 C 556.894531 328.628906 562.972656 339.539062 559.542969 347.800781 C 558.609375 350.292969 554.089844 351.226562 551.285156 352.941406 C 551.128906 352.164062 550.816406 351.382812 550.347656 350.761719 Z M 550.347656 350.761719 " fill-opacity="1" fill-rule="nonzero"/></svg>